HIERARCHY
ROOT Hips
{
	OFFSET 0.000000 0.000000 0.000000
	CHANNELS 6 Xposition Yposition Zposition Xrotation Yrotation Zrotation
	JOINT Chest
	{
		OFFSET 0.000000 0.009282 11.569106
		CHANNELS 6 Xposition Yposition Zposition Xrotation Yrotation Zrotation
		JOINT Chest2
		{
			OFFSET 0.000000 -0.016863 9.269641
			CHANNELS 6 Xposition Yposition Zposition Xrotation Yrotation Zrotation
			JOINT Chest3
			{
				OFFSET 0.000000 0.000000 8.374491
				CHANNELS 6 Xposition Yposition Zposition Xrotation Yrotation Zrotation
				JOINT Chest4
				{
					OFFSET 0.000000 0.000000 8.374493
					CHANNELS 6 Xposition Yposition Zposition Xrotation Yrotation Zrotation
					JOINT Neck
					{
						OFFSET 0.000000 -0.000001 12.152554
						CHANNELS 6 Xposition Yposition Zposition Xrotation Yrotation Zrotation
						JOINT Head
						{
							OFFSET 0.000000 -0.040100 7.802319
							CHANNELS 6 Xposition Yposition Zposition Xrotation Yrotation Zrotation
							End Site
							{
								OFFSET 0.000000 -0.020946 14.853096
							}
						}
					}
					JOINT RightCollar
					{
						OFFSET -2.894404 0.000000 6.791374
						CHANNELS 6 Xposition Yposition Zposition Xrotation Yrotation Zrotation
						JOINT RightShoulder
						{
							OFFSET -13.574684 0.000000 0.000000
							CHANNELS 6 Xposition Yposition Zposition Xrotation Yrotation Zrotation
							JOINT RightElbow
							{
								OFFSET -23.923903 0.000000 0.000000
								CHANNELS 6 Xposition Yposition Zposition Xrotation Yrotation Zrotation
								JOINT RightWrist
								{
									OFFSET -19.846718 -0.012765 0.000000
									CHANNELS 6 Xposition Yposition Zposition Xrotation Yrotation Zrotation
									End Site
									{
										OFFSET -14.973145 0.000000 0.000000
									}
								}
							}
						}
					}
					JOINT LeftCollar
					{
						OFFSET 2.894404 0.000000 6.791374
						CHANNELS 6 Xposition Yposition Zposition Xrotation Yrotation Zrotation
						JOINT LeftShoulder
						{
							OFFSET 13.574684 0.000000 0.000000
							CHANNELS 6 Xposition Yposition Zposition Xrotation Yrotation Zrotation
							JOINT LeftElbow
							{
								OFFSET 23.923903 0.000000 0.000000
								CHANNELS 6 Xposition Yposition Zposition Xrotation Yrotation Zrotation
								JOINT LeftWrist
								{
									OFFSET 19.846718 -0.012765 0.000000
									CHANNELS 6 Xposition Yposition Zposition Xrotation Yrotation Zrotation
									End Site
									{
										OFFSET 14.973145 0.000000 0.000000
									}
								}
							}
						}
					}
				}
			}
		}
	}
	JOINT RightHip
	{
		OFFSET -9.469263 -0.004642 0.045487
		CHANNELS 6 Xposition Yposition Zposition Xrotation Yrotation Zrotation
		JOINT RightKnee
		{
			OFFSET 0.000000 -0.002666 -40.478676
			CHANNELS 6 Xposition Yposition Zposition Xrotation Yrotation Zrotation
			JOINT RightAnkle
			{
				OFFSET 0.000000 -0.049110 -35.224068
				CHANNELS 6 Xposition Yposition Zposition Xrotation Yrotation Zrotation
				JOINT RightToe
				{
					OFFSET 0.000000 -12.539530 -6.151390
					CHANNELS 6 Xposition Yposition Zposition Xrotation Yrotation Zrotation
					End Site
					{
						OFFSET 0.000000 -5.044995 -1.291870
					}
				}
			}
		}
	}
	JOINT LeftHip
	{
		OFFSET 9.469263 -0.004642 0.045487
		CHANNELS 6 Xposition Yposition Zposition Xrotation Yrotation Zrotation
		JOINT LeftKnee
		{
			OFFSET 0.000000 -0.002666 -40.478676
			CHANNELS 6 Xposition Yposition Zposition Xrotation Yrotation Zrotation
			JOINT LeftAnkle
			{
				OFFSET 0.000000 -0.049110 -35.224068
				CHANNELS 6 Xposition Yposition Zposition Xrotation Yrotation Zrotation
				JOINT LeftToe
				{
					OFFSET 0.000000 -12.539530 -6.151390
					CHANNELS 6 Xposition Yposition Zposition Xrotation Yrotation Zrotation
					End Site
					{
						OFFSET 0.000000 -5.044995 -1.291870
					}
				}
			}
		}
	}
}
MOTION
Frames: 4
Frame Time: 0.016667
-59.313450 33.212303 34.813892 13.367303 12.620841 -117.734812 -0.000000 0.009280 11.569108 8.795110 -2.623089 -1.002648 0.000000 -0.016852 9.269634 3.866460 -1.081449 -0.549511 0.000002 -0.000010 8.374486 3.866461 -1.081448 -0.549514 0.000001 -0.000001 8.374494 2.900736 -0.807650 -0.418982 -0.000000 -0.000008 12.152557 19.011603 -0.917296 -1.312455 -0.000001 -0.040099 7.802320 -0.886756 -1.255394 -2.691753 -2.894403 -0.000003 6.791377 -4.683734 -4.470606 -4.060182 -13.574682 -0.000005 -0.000003 33.400332 -36.460697 17.091850 -23.923897 -0.000007 0.000001 61.318454 10.425731 62.806123 -19.846718 -0.012765 0.000005 -51.481007 30.320600 91.119682 2.894402 -0.000003 6.791384 -7.693536 11.147588 -3.025393 13.574679 0.000000 -0.000004 26.424229 43.083785 -4.115120 23.923903 0.000005 0.000001 62.771809 8.114885 -50.312734 19.846720 -0.012765 0.000005 -30.561401 -32.455970 -89.549647 -9.469265 -0.004645 0.045491 -100.224816 -3.635544 -11.505558 -0.000159 -0.006202 -40.476151 110.822142 -27.377075 4.103052 0.000752 -0.049223 -35.224030 5.097164 14.103140 -16.906670 0.000001 -12.539527 -6.151379 -0.140658 0.036797 -0.017812 9.469262 -0.004643 0.045488 -44.322733 14.817342 2.382926 0.000597 -0.007260 -40.476921 141.093485 16.321528 -13.377359 -0.001606 -0.049662 -35.223877 23.855322 -23.693083 41.102695 -0.000312 -12.542153 -6.154040 -89.931277 6.744740 6.810107 
-59.314007 33.223206 34.766552 13.336383 12.692244 -117.701180 -0.000000 0.009284 11.569107 8.765011 -2.656372 -1.006764 0.000004 -0.016867 9.269638 3.851479 -1.102312 -0.547939 -0.000000 -0.000009 8.374499 3.851480 -1.102311 -0.547943 0.000001 0.000000 8.374495 2.889511 -0.823319 -0.417910 -0.000002 -0.000002 12.152550 18.981005 -0.863709 -1.319243 -0.000002 -0.040096 7.802301 -0.942284 -1.154734 -2.687253 -2.894405 -0.000000 6.791372 -4.705931 -4.440073 -4.043577 -13.574688 -0.000001 0.000007 33.432717 -36.416185 17.041009 -23.923895 -0.000006 0.000008 61.329935 10.422454 62.841920 -19.846718 -0.012770 0.000006 -51.542448 30.342924 91.158553 2.894403 -0.000001 6.791374 -7.682844 11.151658 -2.995665 13.574686 -0.000002 0.000003 26.464017 43.118141 -4.219806 23.923901 -0.000006 -0.000004 62.803029 8.144790 -50.281636 19.846722 -0.012765 -0.000001 -30.434264 -32.502941 -89.372124 -9.469262 -0.004642 0.045486 -100.191273 -3.616088 -11.480021 -0.000160 -0.006205 -40.476154 110.836178 -27.298471 4.058606 0.000759 -0.049223 -35.224030 5.072662 14.054129 -16.968510 -0.000003 -12.539522 -6.151389 -0.126139 0.039564 -0.015935 9.469262 -0.004641 0.045488 -44.291448 14.872032 2.371604 0.000608 -0.007256 -40.476913 141.157211 16.362181 -13.604828 -0.001616 -0.049665 -35.223888 23.953139 -23.666553 41.332767 -0.000315 -12.542157 -6.154042 -89.961822 6.759086 6.823212 
-59.315010 33.261391 34.722668 13.271151 12.773051 -117.634545 0.000000 0.009289 11.569108 8.724771 -2.661330 -1.022766 -0.000001 -0.016860 9.269639 3.839452 -1.122422 -0.551031 -0.000003 0.000002 8.374485 3.839454 -1.122421 -0.551034 -0.000001 -0.000004 8.374493 2.880513 -0.838394 -0.420332 -0.000000 0.000002 12.152559 18.938646 -0.817761 -1.324020 0.000003 -0.040101 7.802309 -1.019846 -1.068437 -2.681590 -2.894402 0.000000 6.791383 -4.722339 -4.411543 -4.034888 -13.574687 0.000003 -0.000003 33.414754 -36.391258 16.954927 -23.923899 -0.000004 0.000007 61.363717 10.442716 62.860751 -19.846714 -0.012767 0.000001 -51.593418 30.350840 91.197348 2.894405 -0.000002 6.791376 -7.669427 11.157499 -2.983483 13.574678 0.000000 0.000007 26.523055 43.166574 -4.307992 23.923899 -0.000003 0.000001 62.818486 8.190889 -50.264291 19.846720 -0.012768 -0.000001 -30.340151 -32.540268 -89.225063 -9.469264 -0.004636 0.045485 -100.175516 -3.615104 -11.434573 -0.000165 -0.006208 -40.476158 110.820011 -27.219057 4.043062 0.000752 -0.049223 -35.224030 5.112449 14.006055 -16.995018 -0.000004 -12.539518 -6.151389 -0.118979 0.028061 0.000013 9.469261 -0.004633 0.045489 -44.274181 14.966106 2.426138 0.000608 -0.007252 -40.476913 141.171213 16.328450 -13.614146 -0.001622 -0.049661 -35.223900 24.015182 -23.609377 41.405293 -0.000318 -12.542169 -6.154036 -90.028020 6.793164 6.846947 
-59.303974 33.306969 34.685852 13.188501 12.820565 -117.522858 0.000000 0.009275 11.569104 8.653315 -2.661418 -1.071101 -0.000001 -0.016869 9.269643 3.827863 -1.142636 -0.553339 0.000003 -0.000006 8.374489 3.827865 -1.142636 -0.553336 -0.000002 0.000004 8.374486 2.871842 -0.853552 -0.422171 -0.000001 -0.000006 12.152547 18.888526 -0.784353 -1.326933 0.000002 -0.040100 7.802311 -1.112142 -1.005499 -2.676596 -2.894403 -0.000004 6.791368 -4.699693 -4.388989 -4.031430 -13.574685 -0.000009 0.000004 33.356912 -36.375655 16.872085 -23.923899 -0.000013 0.000013 61.407062 10.470450 62.872588 -19.846724 -0.012765 0.000006 -51.664108 30.353723 91.254510 2.894405 0.000000 6.791365 -7.644764 11.159579 -2.979198 13.574687 -0.000003 -0.000005 26.623968 43.215109 -4.417306 23.923891 -0.000002 -0.000000 62.811915 8.248189 -50.254787 19.846720 -0.012769 -0.000001 -30.304610 -32.577984 -89.127350 -9.469260 -0.004646 0.045486 -100.220301 -3.594140 -11.361171 -0.000158 -0.006210 -40.476154 110.813734 -27.142420 3.982572 0.000755 -0.049231 -35.224022 5.137682 13.929280 -16.936794 0.000002 -12.539531 -6.151390 -0.101035 0.023065 0.008181 9.469264 -0.004650 0.045484 -44.294665 15.068126 2.472501 0.000607 -0.007259 -40.476913 141.180570 16.274560 -13.593960 -0.001619 -0.049667 -35.223900 24.127162 -23.585077 41.495295 -0.000317 -12.542160 -6.154048 -90.116908 6.847216 6.889129 
